<?xml version="1.0" standalone="no"?><!DOCTYPE svg PUBLIC "-//W3C//DTD SVG 1.1//EN" "http://www.w3.org/Graphics/SVG/1.1/DTD/svg11.dtd"><svg t="1782030140175" class="icon" viewBox="0 0 1024 1024" version="1.1" xmlns="http://www.w3.org/2000/svg" p-id="6822" xmlns:xlink="http://www.w3.org/1999/xlink" width="200" height="200"><path d="M0 0m51.2 0l921.6 0q51.2 0 51.2 51.2l0 921.6q0 51.2-51.2 51.2l-921.6 0q-51.2 0-51.2-51.2l0-921.6q0-51.2 51.2-51.2Z" fill="#F6F7FF" p-id="6823" data-spm-anchor-id="a313x.search_index.0.i6.22ad3a81wsfyv1" class=""></path><path d="M654.626133 543.086933H555.392a32.896 32.896 0 0 0-32.904533 32.938667V675.328A32.896 32.896 0 0 0 555.392 708.266667h99.242667a32.896 32.896 0 0 0 32.904533-32.938667V576.273067c0.256-18.210133-14.711467-33.186133-32.913067-33.186134m-198.212266 0h-99.242667A32.896 32.896 0 0 0 324.266667 576.0256V675.328A32.896 32.896 0 0 0 357.179733 708.266667h99.234134a32.896 32.896 0 0 0 32.913066-32.938667V576.273067c0-18.210133-14.711467-33.186133-32.913066-33.186134m242.090666-138.973866l-70.058666-70.1184a32.7936 32.7936 0 0 0-46.6176 0l-9.728 9.728-60.586667 60.3904a33.1264 33.1264 0 0 0-9.728 23.202133c0 8.7296 3.498667 17.220267 9.728 23.458133l9.728 9.728 50.858667 50.901334 9.728 9.728a32.7936 32.7936 0 0 0 46.6176 0l60.586666-60.629334 9.728-9.728a33.0752 33.0752 0 0 0-0.256-46.660266m-242.090666-59.392h-99.242667A32.896 32.896 0 0 0 324.266667 377.668267v99.310933a32.896 32.896 0 0 0 32.913066 32.938667h99.234134a32.896 32.896 0 0 0 32.913066-32.938667V377.915733a32.9472 32.9472 0 0 0-32.913066-33.194666" fill="#ffffff" p-id="6824" data-spm-anchor-id="a313x.search_index.0.i5.22ad3a81wsfyv1" class="selected"></path></svg>